<svg xmlns="http://www.w3.org/2000/svg" version="1.1" xmlns:xlink="http://www.w3.org/1999/xlink" xmlns:svgjs="http://svgjs.dev/svgjs" width="2000" height="202" viewBox="0 0 2000 202"><g transform="matrix(1,0,0,1,-1.2121212121212466,1.146225318690668)"><svg viewBox="0 0 396 40" data-background-color="#ffffff" preserveAspectRatio="xMidYMid meet" height="202" width="2000" xmlns="http://www.w3.org/2000/svg" xmlns:xlink="http://www.w3.org/1999/xlink"><g id="tight-bounds" transform="matrix(1,0,0,1,0.2400000000000091,-0.22697531063181486)"><svg viewBox="0 0 395.52 40.453950621263616" height="40.453950621263616" width="395.52"><g><svg viewBox="0 0 655.3626105440443 67.0307612408252" height="40.453950621263616" width="395.52"><g transform="matrix(1,0,0,1,0,0.8749374071162066)"><svg viewBox="0 0 395.52 65.28088642659279" height="65.28088642659279" width="395.52"><g id="textblocktransform"><svg viewBox="0 0 395.52 65.28088642659279" height="65.28088642659279" width="395.52" id="textblock"><g><svg viewBox="0 0 395.52 65.28088642659279" height="65.28088642659279" width="395.52"><g transform="matrix(1,0,0,1,0,0)"><svg width="395.52" viewBox="2.3 -35.35 216.57999999999998 35.75" height="65.28088642659279" data-palette-color="url(#d2ff0070-7c85-463f-b865-83d2d677b7ff)"></svg></g></svg></g></svg></g></svg></g><g transform="matrix(1,0,0,1,410.9312505440443,0)"><svg viewBox="0 0 244.43135999999998 67.0307612408252" height="67.0307612408252" width="244.43135999999998"><g><svg xmlns="http://www.w3.org/2000/svg" xmlns:xlink="http://www.w3.org/1999/xlink" version="1.1" x="0" y="0" viewBox="0.03935953257037134 34.84871206204211 99.61764046742964 27.31828793795789" enable-background="new 0 0 100 100" xml:space="preserve" height="67.0307612408252" width="244.43135999999998" class="icon-icon-0" data-fill-palette-color="accent" id="icon-0"></svg></g></svg></g></svg></g><defs></defs><mask id="3a1a5a45-378b-448a-af86-7210b25431f1"><g id="SvgjsG1114"><svg viewBox="0 0 395.52 40.453950621263616" height="40.453950621263616" width="395.52"><g><svg viewBox="0 0 655.3626105440443 67.0307612408252" height="40.453950621263616" width="395.52"><g transform="matrix(1,0,0,1,0,0.8749374071162066)"><svg viewBox="0 0 395.52 65.28088642659279" height="65.28088642659279" width="395.52"><g id="SvgjsG1113"><svg viewBox="0 0 395.52 65.28088642659279" height="65.28088642659279" width="395.52" id="SvgjsSvg1112"><g><svg viewBox="0 0 395.52 65.28088642659279" height="65.28088642659279" width="395.52"><g transform="matrix(1,0,0,1,0,0)"><svg width="395.52" viewBox="2.3 -35.35 216.57999999999998 35.75" height="65.28088642659279" data-palette-color="url(#d2ff0070-7c85-463f-b865-83d2d677b7ff)"><path d="M28.05-6.85L28.05-1.65Q24.95 0.4 19.45 0.4L19.45 0.4Q11.9 0.4 7.1-4.3 2.3-9 2.3-16.9L2.3-16.9Q2.3-24.55 7.13-29.35 11.95-34.15 19.35-34.15L19.35-34.15Q24.75-34.15 28-32.3L28-32.3 28-27.25Q25.8-28.45 24.03-28.93 22.25-29.4 19.5-29.4L19.5-29.4Q14.45-29.4 11.08-25.98 7.7-22.55 7.7-16.9L7.7-16.9Q7.7-11.15 11.05-7.75 14.4-4.35 19.9-4.35L19.9-4.35Q24.75-4.35 28.05-6.85L28.05-6.85ZM41.9-3.65L41.9-3.65Q44.3-3.65 45.67-4.98 47.05-6.3 47.05-8.45L47.05-8.45 47.05-11.3 43.25-11.3Q40.45-11.3 39.02-10.2 37.6-9.1 37.6-7.4L37.6-7.4Q37.6-5.65 38.7-4.65 39.8-3.65 41.9-3.65ZM47.2 0L47.2-3Q45.25 0.2 40.35 0.2L40.35 0.2Q36.75 0.2 34.57-1.88 32.4-3.95 32.4-7.15L32.4-7.15Q32.4-10.8 35.15-12.83 37.9-14.85 42.85-14.85L42.85-14.85 47.05-14.85 47.05-16.3Q47.05-18.9 45.8-20.23 44.55-21.55 41.65-21.55L41.65-21.55Q37.6-21.55 34.3-19.3L34.3-19.3 34.3-24.05Q37.25-25.75 42.1-25.75L42.1-25.75Q52.05-25.75 52.05-16.1L52.05-16.1 52.05 0 47.2 0ZM63.55-13.5L63.55 0 58.65 0 58.65-25.35 63.55-25.35 63.55-20.9Q65.4-25.6 70.2-25.6L70.2-25.6Q70.9-25.6 71.75-25.45L71.75-25.45 71.75-20.65Q70.7-21.1 69.4-21.1L69.4-21.1Q66.85-21.1 65.2-18.85 63.55-16.6 63.55-13.5L63.55-13.5ZM97.64-29.4L97.64-29.4 93.24-29.4 93.24-17.1 97.89-17.1Q101.09-17.1 102.74-18.78 104.39-20.45 104.39-23.25L104.39-23.25Q104.39-29.4 97.64-29.4ZM93.24-12.8L93.24 0 88.09 0 88.09-33.7 97.49-33.7Q103.29-33.7 106.44-30.88 109.59-28.05 109.59-23.2L109.59-23.2Q109.54-19.65 107.79-17.18 106.04-14.7 102.94-13.6L102.94-13.6 111.74 0 105.59 0 97.69-12.8 93.24-12.8ZM135.19-5.75L135.19-1.35Q132.39 0.25 127.79 0.25L127.79 0.25Q121.89 0.25 118.39-3.3 114.89-6.85 114.89-12.6L114.89-12.6Q114.89-18.7 118.09-22.18 121.29-25.65 126.24-25.65L126.24-25.65Q131.09-25.65 133.94-22.63 136.79-19.6 136.79-13.9L136.79-13.9Q136.79-12.35 136.49-10.65L136.49-10.65 119.84-10.65Q120.34-7.35 122.64-5.6 124.94-3.85 128.44-3.85L128.44-3.85Q132.49-3.85 135.19-5.75L135.19-5.75ZM126.34-21.6L126.34-21.6Q123.84-21.6 122.04-19.78 120.24-17.95 119.79-14.5L119.79-14.5 132.04-14.5 132.04-15.4Q131.94-18.25 130.49-19.93 129.04-21.6 126.34-21.6ZM163.49-17.15L163.49 0 158.59 0 158.59-16Q158.59-18.65 157.26-20.05 155.94-21.45 153.74-21.45L153.74-21.45Q151.14-21.45 149.29-19.43 147.44-17.4 147.44-13.75L147.44-13.75 147.44 0 142.54 0 142.54-25.35 147.44-25.35 147.44-21Q149.69-25.7 155.34-25.7L155.34-25.7Q159.09-25.7 161.29-23.4 163.49-21.1 163.49-17.15L163.49-17.15ZM183.38-5.05L183.38-0.65Q181.73 0.25 179.33 0.25L179.33 0.25Q171.48 0.25 171.48-7.7L171.48-7.7 171.48-21.55 167.53-21.55 167.53-25.35 171.48-25.35 171.48-31.55 176.43-31.55 176.43-25.35 183.08-25.35 183.08-21.55 176.43-21.55 176.43-7.6Q176.43-3.95 179.93-3.95L179.93-3.95Q181.98-3.95 183.38-5.05L183.38-5.05ZM196.98-3.65L196.98-3.65Q199.38-3.65 200.76-4.98 202.13-6.3 202.13-8.45L202.13-8.45 202.13-11.3 198.33-11.3Q195.53-11.3 194.11-10.2 192.68-9.1 192.68-7.4L192.68-7.4Q192.68-5.65 193.78-4.65 194.88-3.65 196.98-3.65ZM202.28 0L202.28-3Q200.33 0.2 195.43 0.2L195.43 0.2Q191.83 0.2 189.66-1.88 187.48-3.95 187.48-7.15L187.48-7.15Q187.48-10.8 190.23-12.83 192.98-14.85 197.93-14.85L197.93-14.85 202.13-14.85 202.13-16.3Q202.13-18.9 200.88-20.23 199.63-21.55 196.73-21.55L196.73-21.55Q192.68-21.55 189.38-19.3L189.38-19.3 189.38-24.05Q192.33-25.75 197.18-25.75L197.18-25.75Q207.13-25.75 207.13-16.1L207.13-16.1 207.13 0 202.28 0ZM218.88-35.35L218.88 0 213.93 0 213.93-35.35 218.88-35.35Z" opacity="1" transform="matrix(1,0,0,1,0,0)" fill="white" class="wordmark-text-0" id="SvgjsPath1111"></path></svg></g></svg></g></svg></g></svg></g><g transform="matrix(1,0,0,1,410.9312505440443,0)"><svg viewBox="0 0 244.43135999999998 67.0307612408252" height="67.0307612408252" width="244.43135999999998"><g><svg xmlns="http://www.w3.org/2000/svg" xmlns:xlink="http://www.w3.org/1999/xlink" version="1.1" x="0" y="0" viewBox="0.03935953257037134 34.84871206204211 99.61764046742964 27.31828793795789" enable-background="new 0 0 100 100" xml:space="preserve" height="67.0307612408252" width="244.43135999999998" class="icon-icon-0" data-fill-palette-color="accent" id="SvgjsSvg1110"><path fill="black" d="M76.704 58.098c-0.113-0.095-0.25-0.111-0.322-0.033-0.079 0.088-0.049 0.267 0.062 0.396 1.207 1.438 2.871 2.327 4.707 2.333 1.834-0.006 3.498-0.896 4.703-2.333 0.111-0.131 0.143-0.309 0.062-0.396-0.07-0.078-0.208-0.062-0.323 0.033-1.212 1.105-2.758 1.768-4.446 1.771C79.462 59.864 77.917 59.203 76.704 58.098zM72.502 53.5c0-4.786 3.88-8.667 8.667-8.667 4.788 0 8.67 3.881 8.67 8.667 0 4.787-3.882 8.667-8.67 8.667C76.382 62.167 72.502 58.287 72.502 53.5zM69.303 53.375c-0.881-0.014-1.771-0.02-2.668-0.02-6.992 0-13.527 0.406-19.084 1.113 6.077-0.246 13.713-0.291 21.76 0.319-0.02-0.252-0.025-0.502-0.025-0.761C69.284 53.811 69.289 53.592 69.303 53.375zM68.242 37.326c0.359-0.481-0.487-0.588-0.487-0.588-1.254-0.161-2.497-0.3-3.72-0.424-8.432-0.83-16.062-0.706-21.188 1.293-3.291 1.281-6.469 2.618-11.126 4.48 7.314 0 28.246 0.049 28.246 0.049 2.924 0 4.543-1.248 5.176-1.83C65.143 40.307 68.078 37.544 68.242 37.326zM97.807 42.751c-8.058-1.89-17.771-4.083-27.104-5.482-0.902 0.869-1.878 1.812-2.882 2.775C80.699 40.396 92.779 42.004 97.807 42.751zM93.477 52.986c-2.195 2.32 0.609 3.658-0.283 3.814h-2.916c0.373-1.029 0.576-2.143 0.576-3.302 0-5.35-4.334-9.684-9.685-9.684-5.349 0-9.685 4.334-9.685 9.684 0 1.454 0.32 2.831 0.895 4.067-19.645-1.926-37.702 0.369-37.702 0.369L26.46 59.63c1.367-1.67 2.187-3.804 2.187-6.13 0-5.35-4.335-9.684-9.683-9.684-5.349 0-9.685 4.334-9.685 9.684 0 2.134 0.691 4.109 1.863 5.71-4.879-0.261-8.849-0.553-10.919-1.795-1.231-0.722 4.255-0.708 0.882-8.472 3.663-0.301 7.284-0.763 7.284-1.401v-0.08H0.4c6.175-4.295 13.646-5.859 22.963-5.859 3.699-0.147 6.614-0.761 9.255-1.573 3.679-1.399 7.489-2.793 9.773-3.588 13.003-4.529 39.9 1.622 57.266 5.716l-0.142 0.603C99.339 43.635 97.977 48.867 93.477 52.986zM14.498 58.1c-0.113-0.097-0.251-0.113-0.322-0.033-0.079 0.086-0.048 0.265 0.062 0.396 1.207 1.436 2.871 2.325 4.708 2.331 1.831-0.006 3.495-0.896 4.702-2.331 0.111-0.133 0.143-0.311 0.062-0.396-0.072-0.08-0.209-0.062-0.322 0.033-1.213 1.104-2.758 1.766-4.447 1.769C17.256 59.864 15.712 59.203 14.498 58.1zM10.296 53.5c0-4.786 3.881-8.667 8.668-8.667s8.668 3.881 8.668 8.667c0 4.787-3.881 8.667-8.668 8.667S10.296 58.287 10.296 53.5z"></path></svg></g></svg></g></svg></g><defs><mask></mask></defs></svg><rect width="395.52" height="40.453950621263616" fill="black" stroke="none" visibility="hidden"></rect></g></mask><linearGradient x1="0.054" x2="0.941" y1="0.5" y2="0.5" id="d2ff0070-7c85-463f-b865-83d2d677b7ff"><stop stop-color="#0f3054" offset="0"></stop><stop stop-color="#3b8dcb" offset="0.498"></stop><stop stop-color="#0f3054" offset="1"></stop></linearGradient><rect width="395.52" height="40.453950621263616" fill="url(#d2ff0070-7c85-463f-b865-83d2d677b7ff)" mask="url(#3a1a5a45-378b-448a-af86-7210b25431f1)" data-fill-palette-color="primary"></rect><mask id="777dcf77-0b34-437f-9141-cdea38d11403"><g id="SvgjsG1123"><svg viewBox="0 0 395.52 40.453950621263616" height="40.453950621263616" width="395.52"><g><svg viewBox="0 0 655.3626105440443 67.0307612408252" height="40.453950621263616" width="395.52"><g transform="matrix(1,0,0,1,0,0.8749374071162066)"><svg viewBox="0 0 395.52 65.28088642659279" height="65.28088642659279" width="395.52"><g id="SvgjsG1122"><svg viewBox="0 0 395.52 65.28088642659279" height="65.28088642659279" width="395.52" id="SvgjsSvg1121"><g><svg viewBox="0 0 395.52 65.28088642659279" height="65.28088642659279" width="395.52"><g transform="matrix(1,0,0,1,0,0)"><svg width="395.52" viewBox="2.3 -35.35 216.57999999999998 35.75" height="65.28088642659279" data-palette-color="url(#d2ff0070-7c85-463f-b865-83d2d677b7ff)"></svg></g></svg></g></svg></g></svg></g><g transform="matrix(1,0,0,1,410.9312505440443,0)"><svg viewBox="0 0 244.43135999999998 67.0307612408252" height="67.0307612408252" width="244.43135999999998"><g><svg xmlns="http://www.w3.org/2000/svg" xmlns:xlink="http://www.w3.org/1999/xlink" version="1.1" x="0" y="0" viewBox="0.03935953257037134 34.84871206204211 99.61764046742964 27.31828793795789" enable-background="new 0 0 100 100" xml:space="preserve" height="67.0307612408252" width="244.43135999999998" class="icon-icon-0" data-fill-palette-color="accent" id="SvgjsSvg1120"><path fill="white" d="M76.704 58.098c-0.113-0.095-0.25-0.111-0.322-0.033-0.079 0.088-0.049 0.267 0.062 0.396 1.207 1.438 2.871 2.327 4.707 2.333 1.834-0.006 3.498-0.896 4.703-2.333 0.111-0.131 0.143-0.309 0.062-0.396-0.07-0.078-0.208-0.062-0.323 0.033-1.212 1.105-2.758 1.768-4.446 1.771C79.462 59.864 77.917 59.203 76.704 58.098zM72.502 53.5c0-4.786 3.88-8.667 8.667-8.667 4.788 0 8.67 3.881 8.67 8.667 0 4.787-3.882 8.667-8.67 8.667C76.382 62.167 72.502 58.287 72.502 53.5zM69.303 53.375c-0.881-0.014-1.771-0.02-2.668-0.02-6.992 0-13.527 0.406-19.084 1.113 6.077-0.246 13.713-0.291 21.76 0.319-0.02-0.252-0.025-0.502-0.025-0.761C69.284 53.811 69.289 53.592 69.303 53.375zM68.242 37.326c0.359-0.481-0.487-0.588-0.487-0.588-1.254-0.161-2.497-0.3-3.72-0.424-8.432-0.83-16.062-0.706-21.188 1.293-3.291 1.281-6.469 2.618-11.126 4.48 7.314 0 28.246 0.049 28.246 0.049 2.924 0 4.543-1.248 5.176-1.83C65.143 40.307 68.078 37.544 68.242 37.326zM97.807 42.751c-8.058-1.89-17.771-4.083-27.104-5.482-0.902 0.869-1.878 1.812-2.882 2.775C80.699 40.396 92.779 42.004 97.807 42.751zM93.477 52.986c-2.195 2.32 0.609 3.658-0.283 3.814h-2.916c0.373-1.029 0.576-2.143 0.576-3.302 0-5.35-4.334-9.684-9.685-9.684-5.349 0-9.685 4.334-9.685 9.684 0 1.454 0.32 2.831 0.895 4.067-19.645-1.926-37.702 0.369-37.702 0.369L26.46 59.63c1.367-1.67 2.187-3.804 2.187-6.13 0-5.35-4.335-9.684-9.683-9.684-5.349 0-9.685 4.334-9.685 9.684 0 2.134 0.691 4.109 1.863 5.71-4.879-0.261-8.849-0.553-10.919-1.795-1.231-0.722 4.255-0.708 0.882-8.472 3.663-0.301 7.284-0.763 7.284-1.401v-0.08H0.4c6.175-4.295 13.646-5.859 22.963-5.859 3.699-0.147 6.614-0.761 9.255-1.573 3.679-1.399 7.489-2.793 9.773-3.588 13.003-4.529 39.9 1.622 57.266 5.716l-0.142 0.603C99.339 43.635 97.977 48.867 93.477 52.986zM14.498 58.1c-0.113-0.097-0.251-0.113-0.322-0.033-0.079 0.086-0.048 0.265 0.062 0.396 1.207 1.436 2.871 2.325 4.708 2.331 1.831-0.006 3.495-0.896 4.702-2.331 0.111-0.133 0.143-0.311 0.062-0.396-0.072-0.08-0.209-0.062-0.322 0.033-1.213 1.104-2.758 1.766-4.447 1.769C17.256 59.864 15.712 59.203 14.498 58.1zM10.296 53.5c0-4.786 3.881-8.667 8.668-8.667s8.668 3.881 8.668 8.667c0 4.787-3.881 8.667-8.668 8.667S10.296 58.287 10.296 53.5z"></path></svg></g></svg></g></svg></g><defs><mask></mask></defs><mask><g id="SvgjsG1119"><svg viewBox="0 0 395.52 40.453950621263616" height="40.453950621263616" width="395.52"><g><svg viewBox="0 0 655.3626105440443 67.0307612408252" height="40.453950621263616" width="395.52"><g transform="matrix(1,0,0,1,0,0.8749374071162066)"><svg viewBox="0 0 395.52 65.28088642659279" height="65.28088642659279" width="395.52"><g id="SvgjsG1118"><svg viewBox="0 0 395.52 65.28088642659279" height="65.28088642659279" width="395.52" id="SvgjsSvg1117"><g><svg viewBox="0 0 395.52 65.28088642659279" height="65.28088642659279" width="395.52"><g transform="matrix(1,0,0,1,0,0)"><svg width="395.52" viewBox="2.3 -35.35 216.57999999999998 35.75" height="65.28088642659279" data-palette-color="url(#d2ff0070-7c85-463f-b865-83d2d677b7ff)"><path d="M28.05-6.85L28.05-1.65Q24.95 0.4 19.45 0.4L19.45 0.4Q11.9 0.4 7.1-4.3 2.3-9 2.3-16.9L2.3-16.9Q2.3-24.55 7.13-29.35 11.95-34.15 19.35-34.15L19.35-34.15Q24.75-34.15 28-32.3L28-32.3 28-27.25Q25.8-28.45 24.03-28.93 22.25-29.4 19.5-29.4L19.5-29.4Q14.45-29.4 11.08-25.98 7.7-22.55 7.7-16.9L7.7-16.9Q7.7-11.15 11.05-7.75 14.4-4.35 19.9-4.35L19.9-4.35Q24.75-4.35 28.05-6.85L28.05-6.85ZM41.9-3.65L41.9-3.65Q44.3-3.65 45.67-4.98 47.05-6.3 47.05-8.45L47.05-8.45 47.05-11.3 43.25-11.3Q40.45-11.3 39.02-10.2 37.6-9.1 37.6-7.4L37.6-7.4Q37.6-5.65 38.7-4.65 39.8-3.65 41.9-3.65ZM47.2 0L47.2-3Q45.25 0.2 40.35 0.2L40.35 0.2Q36.75 0.2 34.57-1.88 32.4-3.95 32.4-7.15L32.4-7.15Q32.4-10.8 35.15-12.83 37.9-14.85 42.85-14.85L42.85-14.85 47.05-14.85 47.05-16.3Q47.05-18.9 45.8-20.23 44.55-21.55 41.65-21.55L41.65-21.55Q37.6-21.55 34.3-19.3L34.3-19.3 34.3-24.05Q37.25-25.75 42.1-25.75L42.1-25.75Q52.05-25.75 52.05-16.1L52.05-16.1 52.05 0 47.2 0ZM63.55-13.5L63.55 0 58.65 0 58.65-25.35 63.55-25.35 63.55-20.9Q65.4-25.6 70.2-25.6L70.2-25.6Q70.9-25.6 71.75-25.45L71.75-25.45 71.75-20.65Q70.7-21.1 69.4-21.1L69.4-21.1Q66.85-21.1 65.2-18.85 63.55-16.6 63.55-13.5L63.55-13.5ZM97.64-29.4L97.64-29.4 93.24-29.4 93.24-17.1 97.89-17.1Q101.09-17.1 102.74-18.78 104.39-20.45 104.39-23.25L104.39-23.25Q104.39-29.4 97.64-29.4ZM93.24-12.8L93.24 0 88.09 0 88.09-33.7 97.49-33.7Q103.29-33.7 106.44-30.88 109.59-28.05 109.59-23.2L109.59-23.2Q109.54-19.65 107.79-17.18 106.04-14.7 102.94-13.6L102.94-13.6 111.74 0 105.59 0 97.69-12.8 93.24-12.8ZM135.19-5.75L135.19-1.35Q132.39 0.25 127.79 0.25L127.79 0.25Q121.89 0.25 118.39-3.3 114.89-6.85 114.89-12.6L114.89-12.6Q114.89-18.7 118.09-22.18 121.29-25.65 126.24-25.65L126.24-25.65Q131.09-25.65 133.94-22.63 136.79-19.6 136.79-13.9L136.79-13.9Q136.79-12.35 136.49-10.65L136.49-10.65 119.84-10.65Q120.34-7.35 122.64-5.6 124.94-3.85 128.44-3.85L128.44-3.85Q132.49-3.85 135.19-5.75L135.19-5.75ZM126.34-21.6L126.34-21.6Q123.84-21.6 122.04-19.78 120.24-17.95 119.79-14.5L119.79-14.5 132.04-14.5 132.04-15.4Q131.94-18.25 130.49-19.93 129.04-21.6 126.34-21.6ZM163.49-17.15L163.49 0 158.59 0 158.59-16Q158.59-18.65 157.26-20.05 155.94-21.45 153.74-21.45L153.74-21.45Q151.14-21.45 149.29-19.43 147.44-17.4 147.44-13.75L147.44-13.75 147.44 0 142.54 0 142.54-25.35 147.44-25.35 147.44-21Q149.69-25.7 155.34-25.7L155.34-25.7Q159.09-25.7 161.29-23.4 163.49-21.1 163.49-17.15L163.49-17.15ZM183.38-5.05L183.38-0.65Q181.73 0.25 179.33 0.25L179.33 0.25Q171.48 0.25 171.48-7.7L171.48-7.7 171.48-21.55 167.53-21.55 167.53-25.35 171.48-25.35 171.48-31.55 176.43-31.55 176.43-25.35 183.08-25.35 183.08-21.55 176.43-21.55 176.43-7.6Q176.43-3.95 179.93-3.95L179.93-3.95Q181.98-3.95 183.38-5.05L183.38-5.05ZM196.98-3.65L196.98-3.65Q199.38-3.65 200.76-4.98 202.13-6.3 202.13-8.45L202.13-8.45 202.13-11.3 198.33-11.3Q195.53-11.3 194.11-10.2 192.68-9.1 192.68-7.4L192.68-7.4Q192.68-5.65 193.78-4.65 194.88-3.65 196.98-3.65ZM202.28 0L202.28-3Q200.33 0.2 195.43 0.2L195.43 0.2Q191.83 0.2 189.66-1.88 187.48-3.95 187.48-7.15L187.48-7.15Q187.48-10.8 190.23-12.83 192.98-14.85 197.93-14.85L197.93-14.85 202.13-14.85 202.13-16.3Q202.13-18.9 200.88-20.23 199.63-21.55 196.73-21.55L196.73-21.55Q192.68-21.55 189.38-19.3L189.38-19.3 189.38-24.05Q192.33-25.75 197.18-25.75L197.18-25.75Q207.13-25.75 207.13-16.1L207.13-16.1 207.13 0 202.28 0ZM218.88-35.35L218.88 0 213.93 0 213.93-35.35 218.88-35.35Z" opacity="1" transform="matrix(1,0,0,1,0,0)" fill="black" class="wordmark-text-0" id="SvgjsPath1116"></path></svg></g></svg></g></svg></g></svg></g><g transform="matrix(1,0,0,1,410.9312505440443,0)"><svg viewBox="0 0 244.43135999999998 67.0307612408252" height="67.0307612408252" width="244.43135999999998"><g><svg xmlns="http://www.w3.org/2000/svg" xmlns:xlink="http://www.w3.org/1999/xlink" version="1.1" x="0" y="0" viewBox="0.03935953257037134 34.84871206204211 99.61764046742964 27.31828793795789" enable-background="new 0 0 100 100" xml:space="preserve" height="67.0307612408252" width="244.43135999999998" class="icon-icon-0" data-fill-palette-color="accent" id="SvgjsSvg1115"><path fill="black" d="M76.704 58.098c-0.113-0.095-0.25-0.111-0.322-0.033-0.079 0.088-0.049 0.267 0.062 0.396 1.207 1.438 2.871 2.327 4.707 2.333 1.834-0.006 3.498-0.896 4.703-2.333 0.111-0.131 0.143-0.309 0.062-0.396-0.07-0.078-0.208-0.062-0.323 0.033-1.212 1.105-2.758 1.768-4.446 1.771C79.462 59.864 77.917 59.203 76.704 58.098zM72.502 53.5c0-4.786 3.88-8.667 8.667-8.667 4.788 0 8.67 3.881 8.67 8.667 0 4.787-3.882 8.667-8.67 8.667C76.382 62.167 72.502 58.287 72.502 53.5zM69.303 53.375c-0.881-0.014-1.771-0.02-2.668-0.02-6.992 0-13.527 0.406-19.084 1.113 6.077-0.246 13.713-0.291 21.76 0.319-0.02-0.252-0.025-0.502-0.025-0.761C69.284 53.811 69.289 53.592 69.303 53.375zM68.242 37.326c0.359-0.481-0.487-0.588-0.487-0.588-1.254-0.161-2.497-0.3-3.72-0.424-8.432-0.83-16.062-0.706-21.188 1.293-3.291 1.281-6.469 2.618-11.126 4.48 7.314 0 28.246 0.049 28.246 0.049 2.924 0 4.543-1.248 5.176-1.83C65.143 40.307 68.078 37.544 68.242 37.326zM97.807 42.751c-8.058-1.89-17.771-4.083-27.104-5.482-0.902 0.869-1.878 1.812-2.882 2.775C80.699 40.396 92.779 42.004 97.807 42.751zM93.477 52.986c-2.195 2.32 0.609 3.658-0.283 3.814h-2.916c0.373-1.029 0.576-2.143 0.576-3.302 0-5.35-4.334-9.684-9.685-9.684-5.349 0-9.685 4.334-9.685 9.684 0 1.454 0.32 2.831 0.895 4.067-19.645-1.926-37.702 0.369-37.702 0.369L26.46 59.63c1.367-1.67 2.187-3.804 2.187-6.13 0-5.35-4.335-9.684-9.683-9.684-5.349 0-9.685 4.334-9.685 9.684 0 2.134 0.691 4.109 1.863 5.71-4.879-0.261-8.849-0.553-10.919-1.795-1.231-0.722 4.255-0.708 0.882-8.472 3.663-0.301 7.284-0.763 7.284-1.401v-0.08H0.4c6.175-4.295 13.646-5.859 22.963-5.859 3.699-0.147 6.614-0.761 9.255-1.573 3.679-1.399 7.489-2.793 9.773-3.588 13.003-4.529 39.9 1.622 57.266 5.716l-0.142 0.603C99.339 43.635 97.977 48.867 93.477 52.986zM14.498 58.1c-0.113-0.097-0.251-0.113-0.322-0.033-0.079 0.086-0.048 0.265 0.062 0.396 1.207 1.436 2.871 2.325 4.708 2.331 1.831-0.006 3.495-0.896 4.702-2.331 0.111-0.133 0.143-0.311 0.062-0.396-0.072-0.08-0.209-0.062-0.322 0.033-1.213 1.104-2.758 1.766-4.447 1.769C17.256 59.864 15.712 59.203 14.498 58.1zM10.296 53.5c0-4.786 3.881-8.667 8.668-8.667s8.668 3.881 8.668 8.667c0 4.787-3.881 8.667-8.668 8.667S10.296 58.287 10.296 53.5z"></path></svg></g></svg></g></svg></g><defs><mask></mask></defs></svg><rect width="395.52" height="40.453950621263616" fill="black" stroke="none" visibility="hidden"></rect></g></mask></svg><rect width="395.52" height="40.453950621263616" fill="black" stroke="none" visibility="hidden"></rect></g></mask><linearGradient x1="0.054" x2="0.941" y1="0.5" y2="0.5" id="094682c1-1125-45d5-9d9e-818d9266b2c2"><stop stop-color="#0f3054" offset="0"></stop><stop stop-color="#3b8dcb" offset="0.498"></stop><stop stop-color="#0f3054" offset="1"></stop></linearGradient><rect width="395.52" height="40.453950621263616" fill="url(#094682c1-1125-45d5-9d9e-818d9266b2c2)" mask="url(#777dcf77-0b34-437f-9141-cdea38d11403)" data-fill-palette-color="accent"></rect></svg><rect width="395.52" height="40.453950621263616" fill="none" stroke="none" visibility="hidden"></rect></g></svg></g></svg>