<svg xmlns="http://www.w3.org/2000/svg" version="1.1" xmlns:xlink="http://www.w3.org/1999/xlink" xmlns:svgjs="http://svgjs.dev/svgjs" width="2000" height="1999" viewBox="0 0 2000 1999"><g transform="matrix(1,0,0,1,-0.431486880466764,-0.4312711370263287)"><svg viewBox="0 0 343 343" data-background-color="#e9e2da" preserveAspectRatio="xMidYMid meet" height="1999" width="2000" xmlns="http://www.w3.org/2000/svg" xmlns:xlink="http://www.w3.org/1999/xlink"><g id="tight-bounds" transform="matrix(1,0,0,1,0.0740000000000407,0.07400000000001228)"><svg viewBox="0 0 342.85155851775386 342.85155851775386" height="342.85155851775386" width="342.85155851775386"><g><svg></svg></g><g><svg viewBox="0 0 342.85155851775386 342.85155851775386" height="342.85155851775386" width="342.85155851775386"><g><path d="M0 171.426c0-94.676 76.75-171.426 171.426-171.426 94.676 0 171.426 76.75 171.426 171.426 0 94.676-76.75 171.426-171.426 171.426-94.676 0-171.426-76.75-171.426-171.426zM171.426 340.641c93.455 0 169.215-75.76 169.215-169.215 0-93.455-75.76-169.215-169.215-169.215-93.455 0-169.215 75.76-169.215 169.215 0 93.455 75.76 169.215 169.215 169.215z" data-fill-palette-color="tertiary" fill="#000000" stroke="transparent"></path><ellipse rx="164.56874808852186" ry="164.56874808852186" cx="171.42577925887693" cy="171.42577925887693" fill="#000000" stroke="transparent" stroke-width="0" fill-opacity="1" data-fill-palette-color="tertiary"></ellipse></g><g transform="matrix(1,0,0,1,64.84655864529837,139.67558105966128)"><svg viewBox="0 0 213.1584412271571 63.50039639843126" height="63.50039639843126" width="213.1584412271571"><g><svg viewBox="0 0 213.1584412271571 63.50039639843126" height="63.50039639843126" width="213.1584412271571"><g><svg viewBox="0 0 213.1584412271571 63.50039639843126" height="63.50039639843126" width="213.1584412271571"><g transform="matrix(1,0,0,1,0,38.98699541171271)"><svg viewBox="0 0 213.1584412271571 24.513400986718555" height="24.513400986718555" width="213.1584412271571"><g id="textblocktransform"><svg viewBox="0 0 213.1584412271571 24.513400986718555" height="24.513400986718555" width="213.1584412271571" id="textblock"><g><svg viewBox="0 0 213.1584412271571 24.513400986718555" height="24.513400986718555" width="213.1584412271571"><g transform="matrix(1,0,0,1,0,0)"><svg width="213.1584412271571" viewBox="3.5 -33.5 295.63 34" height="24.513400986718555" data-palette-color="#ffdc00"><path d="M20 0.5L20 0.5Q14.9 0.5 11.2-1.6 7.5-3.7 5.5-7.33 3.5-10.95 3.5-15.6L3.5-15.6Q3.5-19.15 4.88-22.38 6.25-25.6 8.63-28.1 11-30.6 14.13-32.05 17.25-33.5 20.75-33.5L20.75-33.5Q23.25-33.5 25-33.18 26.75-32.85 28.13-32.33 29.5-31.8 30.9-31.1L30.9-31.1 31.15-22.35 30.25-22.35 27.2-28.45Q25.3-29.8 23.88-30.4 22.45-31 20.65-31L20.65-31Q17.05-31 14.23-29.2 11.4-27.4 9.78-24.28 8.15-21.15 8.15-17.1L8.15-17.1Q8.15-12.35 9.73-8.97 11.3-5.6 13.98-3.83 16.65-2.05 19.9-2.05L19.9-2.05Q22.65-2.05 24.53-2.83 26.4-3.6 27.85-4.55L27.85-4.55 30.85-9.9 31.7-9.9 31.15-1.95Q29.7-1.2 28.18-0.65 26.65-0.1 24.7 0.2 22.75 0.5 20 0.5ZM47.25 0L37.95 0 37.95-0.8 40.5-2.1 51.6-28.25 53.7-28.25 64.75-2.15 67.65-0.8 67.65 0 56.75 0 56.75-0.8 60.25-2.2 57.1-9.8 46.7-9.8 43.55-2.1 47.25-0.8 47.25 0ZM51.85-22.4L47.75-12.3 56.05-12.3 51.85-22.4ZM83.65 0L72.55 0 72.55-0.8 76.15-2.45 76.15-25.55 72.55-27.2 72.55-28 83.65-28Q88.3-28 90.97-26.1 93.65-24.2 93.65-20.9L93.65-20.9Q93.65-18.45 92.12-16.7 90.6-14.95 87.9-13.95L87.9-13.95 95.65-2.3 98.95-0.8 98.95 0 91.85 0 83.75-12.75 80.35-12.75 80.35-2.5 83.65-0.8 83.65 0ZM82.95-25.5L82.95-25.5 80.35-25.5 80.35-15.25 83.2-15.25Q85.9-15.25 87.52-16.63 89.15-18 89.15-20.4L89.15-20.4Q89.15-22.95 87.52-24.23 85.9-25.5 82.95-25.5ZM126.69 0L114.44 0 114.44-0.8 118.44-2.8 118.44-30.2 114.44-32.2 114.44-33 127.34-33Q132.59-33 135.62-30.83 138.64-28.65 138.64-24.85L138.64-24.85Q138.64-22.05 136.74-19.83 134.84-17.6 131.69-16.45L131.69-16.45 141.19-2.6 144.49-0.8 144.49 0 137.29 0 127.59-15.15 122.94-15.15 122.94-2.85 126.69-0.8 126.69 0ZM126.19-30.25L126.19-30.25 122.94-30.25 122.94-17.9 126.49-17.9Q129.64-17.9 131.72-19.68 133.79-21.45 133.79-24.2L133.79-24.2Q133.79-27 131.74-28.63 129.69-30.25 126.19-30.25ZM170.09 0L147.49 0 147.49-0.8 151.04-2.45 151.04-25.55 147.49-27.2 147.49-28 168.84-28 168.84-20.9 168.04-20.9 165.64-25.5 155.29-25.5 155.29-15.75 162.84-15.75 164.34-19.15 165.14-19.15 165.14-9.9 164.34-9.9 162.84-13.25 155.29-13.25 155.29-2.5 166.79-2.5 169.29-7.9 170.09-7.9 170.09 0ZM187.19 0L176.59 0 176.59-0.8 180.14-2.45 180.14-25.6 176.59-27.2 176.59-28 183.59-28 200.54-7.45 200.54-25.6 196.29-27.2 196.29-28 206.79-28 206.79-27.2 203.29-25.6 203.29 0.2 201.34 0.2 182.89-22 182.89-2.6 187.19-0.8 187.19 0ZM231.73 0L218.53 0 218.53-0.8 222.98-2.45 222.98-25.5 215.28-25.5 212.83-19.65 212.03-19.65 212.03-28 238.23-28 238.23-19.65 237.43-19.65 234.93-25.5 227.23-25.5 227.23-2.45 231.73-0.8 231.73 0ZM251.43 0L242.13 0 242.13-0.8 244.68-2.1 255.78-28.25 257.88-28.25 268.93-2.15 271.83-0.8 271.83 0 260.93 0 260.93-0.8 264.43-2.2 261.28-9.8 250.88-9.8 247.73-2.1 251.43-0.8 251.43 0ZM256.03-22.4L251.93-12.3 260.23-12.3 256.03-22.4ZM299.13 0L276.73 0 276.73-0.8 280.28-2.45 280.28-25.55 276.73-27.2 276.73-28 288.58-28 288.58-27.2 284.53-25.55 284.53-2.5 295.38-2.5 298.33-9.6 299.13-9.6 299.13 0Z" opacity="1" transform="matrix(1,0,0,1,0,0)" fill="#ffdc00" class="wordmark-text-0" data-fill-palette-color="quaternary" id="text-0"></path></svg></g></svg></g></svg></g></svg></g><g transform="matrix(1,0,0,1,46.04646214369479,0)"><svg viewBox="0 0 121.06551693976753 33.19996976037214" height="33.19996976037214" width="121.06551693976753"><g><svg xmlns="http://www.w3.org/2000/svg" xmlns:xlink="http://www.w3.org/1999/xlink" version="1.1" x="0" y="0" viewBox="0.03935953257037134 34.84871206204211 99.61764046742964 27.31828793795789" enable-background="new 0 0 100 100" xml:space="preserve" height="33.19996976037214" width="121.06551693976753" class="icon-icon-0" data-fill-palette-color="quaternary" id="icon-0"><path fill="#ffdc00" d="M76.704 58.098c-0.113-0.095-0.25-0.111-0.322-0.033-0.079 0.088-0.049 0.267 0.062 0.396 1.207 1.438 2.871 2.327 4.707 2.333 1.834-0.006 3.498-0.896 4.703-2.333 0.111-0.131 0.143-0.309 0.062-0.396-0.07-0.078-0.208-0.062-0.323 0.033-1.212 1.105-2.758 1.768-4.446 1.771C79.462 59.864 77.917 59.203 76.704 58.098zM72.502 53.5c0-4.786 3.88-8.667 8.667-8.667 4.788 0 8.67 3.881 8.67 8.667 0 4.787-3.882 8.667-8.67 8.667C76.382 62.167 72.502 58.287 72.502 53.5zM69.303 53.375c-0.881-0.014-1.771-0.02-2.668-0.02-6.992 0-13.527 0.406-19.084 1.113 6.077-0.246 13.713-0.291 21.76 0.319-0.02-0.252-0.025-0.502-0.025-0.761C69.284 53.811 69.289 53.592 69.303 53.375zM68.242 37.326c0.359-0.481-0.487-0.588-0.487-0.588-1.254-0.161-2.497-0.3-3.72-0.424-8.432-0.83-16.062-0.706-21.188 1.293-3.291 1.281-6.469 2.618-11.126 4.48 7.314 0 28.246 0.049 28.246 0.049 2.924 0 4.543-1.248 5.176-1.83C65.143 40.307 68.078 37.544 68.242 37.326zM97.807 42.751c-8.058-1.89-17.771-4.083-27.104-5.482-0.902 0.869-1.878 1.812-2.882 2.775C80.699 40.396 92.779 42.004 97.807 42.751zM93.477 52.986c-2.195 2.32 0.609 3.658-0.283 3.814h-2.916c0.373-1.029 0.576-2.143 0.576-3.302 0-5.35-4.334-9.684-9.685-9.684-5.349 0-9.685 4.334-9.685 9.684 0 1.454 0.32 2.831 0.895 4.067-19.645-1.926-37.702 0.369-37.702 0.369L26.46 59.63c1.367-1.67 2.187-3.804 2.187-6.13 0-5.35-4.335-9.684-9.683-9.684-5.349 0-9.685 4.334-9.685 9.684 0 2.134 0.691 4.109 1.863 5.71-4.879-0.261-8.849-0.553-10.919-1.795-1.231-0.722 4.255-0.708 0.882-8.472 3.663-0.301 7.284-0.763 7.284-1.401v-0.08H0.4c6.175-4.295 13.646-5.859 22.963-5.859 3.699-0.147 6.614-0.761 9.255-1.573 3.679-1.399 7.489-2.793 9.773-3.588 13.003-4.529 39.9 1.622 57.266 5.716l-0.142 0.603C99.339 43.635 97.977 48.867 93.477 52.986zM14.498 58.1c-0.113-0.097-0.251-0.113-0.322-0.033-0.079 0.086-0.048 0.265 0.062 0.396 1.207 1.436 2.871 2.325 4.708 2.331 1.831-0.006 3.495-0.896 4.702-2.331 0.111-0.133 0.143-0.311 0.062-0.396-0.072-0.08-0.209-0.062-0.322 0.033-1.213 1.104-2.758 1.766-4.447 1.769C17.256 59.864 15.712 59.203 14.498 58.1zM10.296 53.5c0-4.786 3.881-8.667 8.668-8.667s8.668 3.881 8.668 8.667c0 4.787-3.881 8.667-8.668 8.667S10.296 58.287 10.296 53.5z" data-fill-palette-color="quaternary"></path></svg></g></svg></g><g></g></svg></g></svg></g></svg></g></svg></g><defs></defs></svg><rect width="342.85155851775386" height="342.85155851775386" fill="none" stroke="none" visibility="hidden"></rect></g></svg></g></svg>